# Blender 3.5.0
# www.blender.org
mtllib inukshuk-pearce.mtl
o Inuksuit
v 7.761143 0.492693 27.516769
v 7.491642 -0.336740 -27.516777
v 7.761143 0.492693 -27.516777
v 7.491642 -0.336740 27.516769
v 7.491642 13.774426 28.346207
v 7.761143 14.603859 27.516769
v 7.491642 0.492693 28.346207
v 6.786085 -0.849358 -27.516777
v 6.702805 -0.849358 -27.773087
v 6.786085 13.261808 28.858826
v 6.786085 0.492693 28.858826
v -6.702805 -0.336740 28.602516
v -7.491642 0.492693 28.346207
v -7.273613 -0.336740 28.187798
v -6.786085 13.261808 28.858826
v -7.491642 13.774426 28.346207
v -6.786085 0.492693 28.858826
v 7.761143 40.003967 -9.172260
v 7.761143 40.003967 9.172256
v 7.761143 23.070560 -9.172260
v 7.761143 23.070560 -48.683533
v 7.761143 14.603859 -27.516777
v 7.761143 14.603859 -48.683533
v 7.761143 23.070560 9.172256
v 7.761143 23.070560 48.683517
v 7.761143 14.603859 48.683517
v -7.491642 -0.336740 -27.516777
v -7.761143 0.492693 -27.516777
v -7.491642 0.492693 -28.346214
v -7.761143 0.492693 27.516769
v -7.761143 14.603859 27.516769
v 7.491642 0.492693 -28.346214
v 6.786085 13.261808 -28.858826
v 7.491642 13.774426 -28.346214
v 6.786085 0.492693 -28.858826
v 6.702805 -0.336740 28.602516
v -7.491642 -0.336740 27.516769
v -7.761143 23.070560 -9.172260
v -7.761143 14.603859 -27.516777
v -7.761143 23.070560 9.172256
v -7.761143 40.003967 -9.172260
v -7.761143 23.070560 48.683517
v -7.761143 14.603859 48.683517
v -7.761143 23.070560 -48.683533
v -7.761143 14.603859 -48.683533
v -7.761143 40.003967 9.172256
v -6.786085 -0.849358 -27.516777
v -6.786085 -0.849358 27.516769
v -6.786085 13.261808 -28.858826
v -6.786085 0.492693 -28.858826
v -6.702805 -0.849358 27.773087
v -7.491642 13.774426 -28.346214
v 6.484774 -0.849358 -27.931496
v 6.702805 -0.336740 -28.602524
v -6.702805 -0.336740 -28.602524
v 6.786085 -0.849358 27.516769
v 7.273613 -0.336740 28.187798
v 6.702805 -0.849358 27.773087
v -6.702805 -0.849358 -27.773087
v -7.273613 -0.336740 -28.187805
v 7.273613 -0.336740 -28.187805
v -6.484774 -0.849358 27.931488
v 6.484774 -0.849358 27.931488
v -6.484774 -0.849358 -27.931496
v 6.080526 -0.849358 6.931705
v 6.350025 -0.849358 -7.761143
v 6.350025 -0.849358 7.761141
v 6.080526 -0.849358 -6.931709
v 5.374968 -0.849358 6.419088
v 5.374968 -0.849358 -6.419092
v -5.374968 -0.849358 6.419088
v -5.374968 -0.849358 -6.419092
v -6.080526 -0.849358 6.931705
v -6.080526 -0.849358 -6.931709
v -6.350025 -0.849358 7.761141
v -6.350025 -0.849358 -7.761143
v 5.374968 -0.849358 21.803242
v 6.350025 -0.849358 20.461189
v 6.080526 -0.849358 21.290627
v -5.374968 -0.849358 21.803242
v -6.350025 -0.849358 20.461189
v -6.080526 -0.849358 21.290627
v 6.350025 -0.849358 -20.461197
v 6.080526 -0.849358 -21.290627
v 5.374968 -0.849358 -21.803246
v -5.374968 -0.849358 -21.803246
v -6.080526 -0.849358 -21.290627
v -6.350025 -0.849358 -20.461197
v 6.080526 -41.840805 6.931705
v 5.374968 -41.840805 6.419088
v 5.291687 -42.670242 6.675398
v -5.374968 -41.840805 6.419088
v -5.291687 -42.670242 6.675398
v 5.374968 -43.182861 7.761141
v 5.291687 -43.182861 7.504831
v 6.080526 -42.670242 7.761141
v -5.374968 -41.840805 21.803242
v -6.080526 -41.840805 21.290627
v -5.291687 -42.670242 21.546936
v 5.374968 -43.182861 20.461189
v 6.080526 -42.670242 20.461189
v -6.080526 -42.670242 7.761141
v -6.350025 -41.840805 7.761141
v -6.080526 -41.840805 6.931705
v -5.073658 -43.182861 7.346424
v -5.291687 -43.182861 7.504831
v 5.073658 -43.182861 7.346424
v 5.862495 -42.670242 7.090115
v -6.080526 -42.670242 20.461189
v -5.374968 -43.182861 7.761141
v -5.374968 -43.182861 20.461189
v -5.862495 -42.670242 21.132217
v -5.291687 -43.182861 20.717499
v 6.350025 -41.840805 7.761141
v -5.862495 -42.670242 7.090115
v 6.350025 -41.840805 20.461189
v 5.374968 -41.840805 21.803242
v 6.080526 -41.840805 21.290627
v 5.291687 -42.670242 21.546936
v 5.862495 -42.670242 21.132217
v 5.291687 -43.182861 20.717499
v 5.073658 -43.182861 20.875908
v -5.073658 -43.182861 20.875908
v -6.350025 -41.840805 20.461189
v 6.080526 -41.840805 -21.290627
v 5.374968 -41.840805 -21.803246
v -5.374968 -41.840805 -21.803246
v -6.080526 -41.840805 -21.290627
v 5.291687 -42.670242 -21.546936
v -5.291687 -42.670242 -21.546936
v 5.862495 -42.670242 -21.132217
v -5.374968 -41.840805 -6.419092
v -6.080526 -41.840805 -6.931709
v -5.291687 -42.670242 -6.675402
v 5.374968 -43.182861 -7.761143
v 6.080526 -42.670242 -20.461197
v 6.080526 -42.670242 -7.761143
v 5.374968 -43.182861 -20.461197
v -6.080526 -42.670242 -20.461197
v -6.350025 -41.840805 -20.461197
v -5.073658 -43.182861 -20.875908
v -5.291687 -43.182861 -20.717506
v 5.291687 -43.182861 -20.717506
v 5.073658 -43.182861 -20.875908
v -6.080526 -42.670242 -7.761143
v -5.374968 -43.182861 -20.461197
v -5.374968 -43.182861 -7.761143
v -5.862495 -42.670242 -7.090118
v -5.291687 -43.182861 -7.504835
v 6.350025 -41.840805 -20.461197
v -5.862495 -42.670242 -21.132217
v 6.350025 -41.840805 -7.761143
v 5.374968 -41.840805 -6.419092
v 6.080526 -41.840805 -6.931709
v 5.291687 -42.670242 -6.675402
v 5.862495 -42.670242 -7.090118
v 5.291687 -43.182861 -7.504835
v 5.073658 -43.182861 -7.346428
v -5.073658 -43.182861 -7.346428
v -6.350025 -41.840805 -7.761143
v 7.491642 14.603859 -49.512962
v 7.491642 23.070560 -49.512962
v 7.491642 23.899994 -10.001694
v 7.491642 23.899994 -48.683533
v 7.491642 23.899994 10.001692
v 7.491642 23.899994 48.683517
v -7.491642 23.070560 -49.512962
v -7.491642 23.899994 -48.683533
v -7.273613 23.899994 -49.354553
v -6.702805 24.412613 -48.939835
v 7.491642 13.774426 -48.683533
v 7.273613 13.774426 49.354553
v 6.702805 13.774426 49.769272
v 6.702805 13.261808 48.939835
v 6.702805 24.412613 -48.939835
v 6.786085 24.412613 -48.683533
v 7.273613 13.774426 -49.354553
v 6.702805 13.774426 -49.769272
v -7.491642 14.603859 49.512955
v -7.491642 23.070560 49.512955
v -6.786085 23.070560 50.025574
v -6.786085 14.603859 50.025574
v 6.786085 23.070560 50.025574
v 6.786085 14.603859 50.025574
v 7.491642 13.774426 48.683517
v 6.786085 13.261808 -48.683533
v 6.702805 13.261808 -48.939835
v -7.491642 13.774426 -48.683533
v -6.786085 13.261808 -48.683533
v -7.491642 13.774426 48.683517
v -6.786085 13.261808 48.683517
v 6.786085 14.603859 -50.025581
v -6.786085 23.070560 -50.025581
v 6.786085 23.070560 -50.025581
v -6.786085 14.603859 -50.025581
v -6.702805 13.774426 49.769272
v -6.702805 23.899994 -49.769272
v 6.702805 24.412613 48.939835
v 6.484774 24.412613 49.098236
v 6.702805 23.899994 49.769272
v 7.491642 23.070560 49.512955
v 7.491642 14.603859 49.512955
v -6.702805 13.774426 -49.769272
v -7.273613 13.774426 -49.354553
v -7.491642 14.603859 -49.512962
v -6.702805 13.261808 -48.939835
v -7.273613 13.774426 49.354553
v -7.491642 23.899994 -10.001694
v -7.491642 23.899994 10.001692
v -7.491642 23.899994 48.683517
v 6.786085 24.412613 -10.514313
v 6.786085 24.412613 10.514309
v 6.786085 24.412613 48.683517
v 6.786085 13.261808 48.683517
v 6.702805 23.899994 -49.769272
v -6.484774 24.412613 -49.098251
v 6.484774 24.412613 -49.098251
v 7.273613 23.899994 -49.354553
v 6.484774 13.261808 -49.098251
v -6.702805 13.261808 48.939835
v 6.484774 13.261808 49.098236
v -6.484774 13.261808 49.098236
v -6.484774 13.261808 -49.098251
v -6.786085 24.412613 -10.514313
v -6.786085 24.412613 -48.683533
v -6.786085 24.412613 10.514309
v -6.786085 24.412613 48.683517
v -6.702805 23.899994 49.769272
v -6.702805 24.412613 48.939835
v -6.484774 24.412613 49.098236
v -7.273613 23.899994 49.354553
v 7.273613 23.899994 49.354553
v 7.491642 40.003967 -10.001694
v 7.273613 40.833389 -9.843285
v 7.491642 40.833389 -9.172260
v -7.491642 40.003967 10.001692
v -6.786085 40.003967 10.514309
v -7.273613 40.833389 9.843285
v -6.702805 40.833389 10.257999
v 6.484774 41.346008 -9.586975
v 6.786085 41.346008 -9.172260
v 6.702805 41.346008 -9.428568
v -6.786085 41.346008 -9.172260
v 6.786085 41.346008 9.172256
v -6.786085 41.346008 9.172256
v -6.484774 41.346008 -9.586975
v 6.484774 41.346008 9.586975
v -6.702805 41.346008 -9.428568
v 6.702805 41.346008 9.428566
v -6.484774 41.346008 9.586975
v -6.702805 41.346008 9.428566
v 6.702805 40.833389 10.257999
v 7.273613 40.833389 9.843285
v 6.702805 40.833389 -10.258003
v -6.702805 40.833389 -10.258003
v -7.273613 40.833389 -9.843285
v -6.786085 40.003967 -10.514313
v 6.786085 40.003967 -10.514313
v -7.491642 40.003967 -10.001694
v -7.491642 40.833389 -9.172260
v 7.491642 40.003967 10.001692
v 6.786085 40.003967 10.514309
v 7.491642 40.833389 9.172256
v -7.491642 40.833389 9.172256
vn -0.9511 -0.3090 -0.0000
vn 0.3568 -0.7947 0.4911
vn -0.0000 -0.2952 0.9554
vn -0.3568 -0.7947 -0.4911
vn -0.0000 -0.0000 1.0000
vn 0.3568 0.7947 0.4911
vn 0.9087 -0.2952 -0.2952
vn 1.0000 -0.0000 -0.0000
vn 0.9511 -0.0000 0.3090
vn 0.5616 0.2952 0.7730
vn -0.0000 -0.2952 -0.9554
vn -0.0000 -0.0000 -1.0000
vn 0.9511 -0.3090 -0.0000
vn -0.9087 -0.2952 0.2952
vn 0.9087 0.2952 -0.2952
vn -0.9087 -0.2952 -0.2952
vn -0.0000 0.7947 -0.6071
vn -0.0000 -0.7947 0.6071
vn -0.9511 -0.0000 0.3090
vn -0.5616 -0.2952 -0.7730
vn 0.5773 0.7947 -0.1876
vn -1.0000 -0.0000 -0.0000
vn 0.9511 -0.0000 -0.3090
vn 0.5616 -0.2952 0.7730
vn -0.5773 -0.7947 0.1876
vn -0.5774 -0.7947 -0.1876
vn -0.0000 -0.7947 -0.6071
vn 0.5774 -0.7947 0.1876
vn -0.5878 0.8090 -0.0000
vn 0.9087 -0.2952 0.2952
vn -0.0000 -1.0000 -0.0000
vn 0.5773 -0.7947 -0.1876
vn 0.5774 0.7947 0.1876
vn 0.5878 -0.0000 0.8090
vn -0.5616 -0.2952 0.7730
vn -0.9511 -0.0000 -0.3090
vn -0.5878 -0.0000 -0.8090
vn -0.3568 0.7947 0.4911
vn -0.5878 -0.0000 0.8090
vn -0.5616 0.2952 0.7730
vn 0.5616 0.2952 -0.7730
vn -0.5616 0.2952 -0.7730
vn -0.5878 -0.8090 -0.0000
vn -0.0000 0.2952 -0.9554
vn -0.9087 0.2952 0.2952
vn 0.5878 -0.0000 -0.8090
vn -0.0000 1.0000 -0.0000
vn -0.9087 0.2952 -0.2952
vn -0.3568 0.7947 -0.4911
vn 0.9511 0.3090 -0.0000
vn -0.9511 0.3090 -0.0000
vn 0.5878 -0.8090 -0.0000
vn 0.5878 0.8090 -0.0000
vn 0.5773 -0.7947 0.1876
vn -0.5774 -0.7947 0.1876
vn -0.3568 -0.7947 0.4911
vn 0.9087 0.2952 0.2952
vn -0.5773 -0.7947 -0.1876
vn -0.5773 0.7947 0.1876
vn 0.5616 -0.2952 -0.7730
vn 0.3568 -0.7947 -0.4911
vn -0.0000 0.2952 0.9554
vn -0.5774 0.7947 -0.1876
vn -0.0000 0.7947 0.6071
vn 0.3568 0.7947 -0.4911
vn -0.5774 0.7947 0.1876
vn -0.5773 0.7947 -0.1876
vn 0.5774 0.7947 -0.1876
vn 0.5774 -0.7947 -0.1876
s 0
f 52//1 39//1 45//1 188//1
f 156//2 155//2 158//2 157//2
f 134//3 155//3 153//3 132//3
f 223//4 206//4 204//4 203//4
f 132//5 153//5 70//5 72//5
f 249//6 247//6 252//6 253//6
f 171//7 177//7 161//7 23//7
f 24//8 25//8 26//8 6//8 1//8 3//8 22//8 23//8 21//8 20//8 18//8 19//8
f 5//9 7//9 1//9 6//9
f 232//10 200//10 183//10 201//10
f 54//11 55//11 50//11 35//11
f 211//12 224//12 257//12 258//12
f 1//13 4//13 2//13 3//13
f 14//14 13//14 30//14 37//14
f 235//15 18//15 233//15 234//15
f 151//16 139//16 140//16 128//16
f 254//17 255//17 246//17 240//17
f 119//18 99//18 123//18 122//18
f 155//18 134//18 159//18 158//18
f 209//19 236//19 46//19 40//19
f 29//20 50//20 55//20 60//20
f 182//5 184//5 183//5 181//5
f 242//21 241//21 235//21 234//21
f 40//22 46//22 41//22 38//22 44//22 45//22 39//22 28//22 30//22 31//22 43//22 42//22
f 114//7 96//7 108//7 89//7
f 3//23 32//23 34//23 22//23
f 17//5 11//5 10//5 15//5
f 119//24 120//24 118//24 117//24
f 148//25 145//25 147//25 149//25
f 27//26 60//26 59//26 47//26
f 165//9 24//9 19//9 261//9
f 178//11 203//11 195//11 192//11
f 2//7 61//7 32//7 3//7
f 105//27 93//27 91//27 107//27
f 106//4 115//4 93//4 105//4
f 215//17 197//17 216//17 217//17
f 36//18 12//18 62//18 63//18
f 58//28 56//28 4//28 57//28
f 124//22 81//22 75//22 103//22
f 99//3 119//3 117//3 97//3
f 260//29 264//29 245//29 243//29
f 152//30 154//30 156//30 137//30
f 86//31 87//31 88//31 76//31 74//31 72//31 70//31 68//31 66//31 83//31 8//31 67//31 65//31 69//31 71//31 73//31 75//31 81//31 82//31 80//31 77//31 79//31 78//31 56//31 58//31 63//31 62//31 51//31 48//31 47//31 59//31 64//31 53//31
f 56//31 78//31 67//31 8//31
f 18//23 20//23 163//23 233//23
f 97//5 117//5 77//5 80//5
f 143//32 131//32 136//32 138//32
f 249//33 253//33 263//33 244//33
f 7//34 5//34 10//34 11//34
f 133//35 148//35 134//35 132//35
f 140//36 88//36 87//36 128//36
f 174//28 214//28 185//28 172//28
f 116//30 118//30 120//30 101//30
f 92//37 104//37 73//37 71//37
f 239//38 250//38 251//38 238//38
f 188//26 204//26 206//26 189//26
f 98//39 97//39 80//39 82//39
f 236//40 237//40 239//40 238//40
f 109//1 124//1 103//1 102//1
f 168//29 208//29 224//29 225//29
f 173//18 196//18 222//18 221//18
f 141//27 130//27 129//27 144//27
f 151//20 128//20 127//20 130//20
f 91//11 93//11 92//11 90//11
f 95//32 108//32 96//32 94//32
f 254//41 234//41 233//41 258//41
f 123//31 113//31 111//31 110//31 106//31 105//31 107//31 95//31 94//31 100//31 121//31 122//31
f 142//4 151//4 130//4 141//4
f 167//42 169//42 197//42 193//42
f 37//43 27//43 47//43 48//43
f 145//43 139//43 146//43 147//43
f 182//35 179//35 207//35 196//35
f 252//10 262//10 261//10 253//10
f 152//13 137//13 136//13 150//13
f 258//44 257//44 255//44 254//44
f 180//45 231//45 210//45 42//45
f 12//3 36//3 11//3 17//3
f 173//2 221//2 174//2 172//2
f 32//46 35//46 33//46 34//46
f 60//16 27//16 28//16 29//16
f 36//24 57//24 7//24 11//24
f 162//15 218//15 164//15 21//15
f 126//12 127//12 86//12 85//12
f 133//39 132//39 72//39 74//39
f 211//47 176//47 175//47 217//47 216//47 170//47 225//47 224//47
f 167//48 44//48 168//48 169//48
f 198//33 232//33 166//33 213//33
f 115//20 104//20 92//20 93//20
f 170//49 216//49 197//49 169//49
f 98//35 112//35 99//35 97//35
f 163//50 20//50 21//50 164//50
f 194//44 193//44 197//44 215//44
f 109//43 102//43 110//43 111//43
f 46//51 264//51 260//51 41//51
f 205//20 195//20 203//20 204//20
f 100//52 94//52 96//52 101//52
f 33//52 186//52 171//52 34//52
f 200//6 232//6 198//6 199//6
f 202//30 172//30 185//30 26//30
f 212//53 213//53 166//53 165//53
f 157//54 135//54 137//54 156//54
f 14//55 37//55 48//55 51//55
f 146//31 142//31 141//31 144//31 143//31 138//31 135//31 157//31 158//31 159//31 149//31 147//31
f 241//53 244//53 263//53 235//53
f 196//56 207//56 220//56 222//56
f 166//57 232//57 201//57 25//57
f 102//58 115//58 106//58 110//58
f 236//39 209//39 226//39 237//39
f 245//59 264//59 238//59 251//59
f 35//12 50//12 49//12 33//12
f 44//51 38//51 208//51 168//51
f 263//57 253//57 261//57 19//57
f 188//16 45//16 205//16 204//16
f 83//23 150//23 125//23 84//23
f 16//19 31//19 30//19 13//19
f 64//27 55//27 54//27 53//27
f 178//60 192//60 161//60 177//60
f 62//56 12//56 14//56 51//56
f 187//61 219//61 178//61 177//61
f 233//46 163//46 211//46 258//46
f 222//31 220//31 191//31 15//31 10//31 214//31 174//31 221//31
f 41//36 259//36 208//36 38//36
f 211//53 163//53 164//53 176//53
f 127//37 128//37 87//37 86//37
f 17//35 13//35 14//35 12//35
f 160//22 76//22 88//22 140//22
f 131//61 143//61 144//61 129//61
f 224//37 208//37 259//37 257//37
f 237//62 262//62 252//62 239//62
f 53//31 9//31 8//31 83//31 84//31 85//31 86//31
f 7//30 57//30 4//30 1//30
f 161//46 192//46 194//46 162//46
f 168//63 225//63 170//63 169//63
f 226//5 212//5 262//5 237//5
f 43//1 31//1 16//1 190//1
f 159//56 134//56 148//56 149//56
f 230//64 228//64 200//64 199//64
f 66//8 152//8 150//8 83//8
f 129//60 126//60 125//60 131//60
f 10//52 5//52 185//52 214//52
f 64//4 59//4 60//4 55//4
f 117//34 118//34 79//34 77//34
f 78//8 116//8 114//8 67//8
f 79//9 118//9 116//9 78//9
f 29//37 52//37 49//37 50//37
f 13//39 17//39 15//39 16//39
f 115//16 102//16 103//16 104//16
f 207//14 179//14 43//14 190//14
f 250//64 239//64 252//64 247//64
f 254//65 240//65 242//65 234//65
f 210//29 227//29 226//29 209//29
f 123//56 99//56 112//56 113//56
f 21//23 23//23 161//23 162//23
f 179//39 182//39 181//39 180//39
f 91//60 90//60 89//60 108//60
f 68//9 154//9 152//9 66//9
f 227//66 210//66 231//66 229//66
f 260//48 256//48 259//48 41//48
f 215//65 217//65 175//65 218//65
f 129//11 130//11 127//11 126//11
f 42//51 210//51 209//51 40//51
f 36//2 63//2 58//2 57//2
f 260//67 243//67 248//67 256//67
f 248//49 246//49 255//49 256//49
f 188//43 189//43 49//43 52//43
f 184//34 202//34 201//34 183//34
f 236//45 238//45 264//45 46//45
f 112//55 109//55 111//55 113//55
f 218//68 175//68 176//68 164//68
f 26//13 185//13 5//13 6//13
f 116//13 101//13 96//13 114//13
f 135//52 138//52 136//52 137//52
f 184//24 173//24 172//24 202//24
f 155//24 156//24 154//24 153//24
f 192//12 195//12 193//12 194//12
f 207//55 190//55 191//55 220//55
f 108//61 95//61 107//61 91//61
f 257//42 259//42 256//42 255//42
f 223//27 203//27 178//27 219//27
f 61//61 9//61 53//61 54//61
f 145//1 160//1 140//1 139//1
f 103//36 75//36 73//36 104//36
f 150//7 136//7 131//7 125//7
f 201//9 202//9 26//9 25//9
f 190//43 16//43 15//43 191//43
f 231//40 180//40 181//40 228//40
f 125//46 126//46 85//46 84//46
f 153//34 154//34 68//34 70//34
f 28//36 39//36 52//36 29//36
f 67//23 114//23 89//23 65//23
f 250//47 247//47 249//47 244//47 241//47 242//47 240//47 246//47 248//47 243//47 245//47 251//47
f 56//52 8//52 2//52 4//52
f 213//47 212//47 226//47 227//47 229//47 230//47 199//47 198//47
f 196//3 173//3 184//3 182//3
f 9//69 61//69 2//69 8//69
f 98//19 82//19 81//19 124//19
f 25//50 24//50 165//50 166//50
f 23//13 22//13 34//13 171//13
f 195//37 205//37 167//37 193//37
f 90//12 92//12 71//12 69//12
f 179//19 180//19 42//19 43//19
f 229//38 231//38 228//38 230//38
f 37//1 30//1 28//1 27//1
f 120//2 119//2 122//2 121//2
f 194//41 215//41 218//41 162//41
f 139//58 151//58 142//58 146//58
f 112//14 98//14 124//14 109//14
f 133//19 74//19 76//19 160//19
f 263//50 19//50 18//50 235//50
f 212//34 165//34 261//34 262//34
f 121//28 100//28 101//28 120//28
f 181//62 183//62 200//62 228//62
f 187//69 177//69 171//69 186//69
f 54//60 35//60 32//60 61//60
f 89//46 90//46 69//46 65//46
f 33//31 49//31 189//31 206//31 223//31 219//31 187//31 186//31
f 148//14 133//14 160//14 145//14
f 45//36 44//36 167//36 205//36
